<?xml version="1.0" standalone="no"?>
<!DOCTYPE svg PUBLIC "-//W3C//DTD SVG 20010904//EN"
 "http://www.w3.org/TR/2001/REC-SVG-20010904/DTD/svg10.dtd">
<svg version="1.0" xmlns="http://www.w3.org/2000/svg"
 width="300.000000pt" height="300.000000pt" viewBox="0 0 300.000000 300.000000"
 preserveAspectRatio="xMidYMid meet">
<metadata>
Created by potrace 1.11, written by Peter Selinger 2001-2013
</metadata>
<g transform="translate(0.000000,300.000000) scale(0.100000,-0.100000)"
fill="#000000" stroke="none">
<path d="M1305 2845 c-395 -64 -723 -274 -940 -600 -94 -142 -158 -298 -196
-475 -32 -149 -32 -391 0 -540 58 -270 181 -498 372 -689 191 -191 419 -314
689 -372 149 -32 391 -32 540 0 270 58 498 181 689 372 191 191 314 419 372
689 32 149 32 391 0 540 -58 270 -180 497 -372 689 -191 192 -419 314 -691
372 -125 27 -344 33 -463 14z m646 -655 c10 -6 19 -19 19 -28 0 -10 -91 -157
-203 -327 -111 -171 -238 -365 -282 -433 -44 -67 -136 -207 -204 -310 -68
-103 -125 -191 -127 -197 -3 -7 121 -9 368 -7 205 2 388 0 405 -3 25 -4 34
-12 39 -32 14 -52 9 -53 -464 -53 -279 0 -440 4 -453 10 -10 6 -19 19 -19 28
0 10 91 157 203 327 111 171 238 365 282 433 44 67 136 207 204 310 68 103
125 191 127 197 3 7 -121 9 -368 7 -205 -2 -388 0 -405 3 -25 4 -34 12 -39 32
-14 52 -9 53 464 53 279 0 440 -4 453 -10z"/>
</g>
</svg>
